<?xml version="1.0" standalone="no"?>
<!DOCTYPE svg PUBLIC "-//W3C//DTD SVG 20010904//EN"
 "http://www.w3.org/TR/2001/REC-SVG-20010904/DTD/svg10.dtd">
<svg version="1.0" xmlns="http://www.w3.org/2000/svg"
 width="256.000000pt" height="256.000000pt" viewBox="0 0 256.000000 256.000000"
 preserveAspectRatio="xMidYMid meet">
<metadata>
Created by potrace 1.11, written by Peter Selinger 2001-2013
</metadata>
<g transform="translate(0.000000,256.000000) scale(0.100000,-0.100000)"
fill="#000000" stroke="none">
<path d="M1218 2499 c-66 -10 -155 -37 -208 -64 -35 -17 -50 -20 -67 -12 -34
15 -101 -15 -196 -87 -109 -81 -180 -156 -231 -241 -40 -68 -42 -70 -81 -70
l-40 0 1 -70 c1 -67 12 -214 19 -264 4 -24 27 -56 58 -79 42 -32 3 -31 -100 2
-18 6 -22 2 -28 -26 -8 -35 -95 -276 -125 -343 -34 -77 -33 -91 3 -120 48 -41
199 -187 195 -189 -2 -2 -27 -11 -57 -22 -50 -18 -93 -47 -102 -71 -5 -14
-153 -131 -211 -168 l-48 -30 0 -322 0 -323 1280 0 1280 0 0 323 0 322 -92 65
c-50 36 -119 92 -153 126 -45 45 -75 66 -113 78 -29 10 -52 20 -52 23 0 3 12
17 28 31 113 103 192 185 192 200 -1 9 -7 33 -14 52 -102 261 -127 331 -133
363 -5 33 -8 37 -27 31 -32 -11 -89 -23 -105 -24 -7 0 3 17 23 37 20 21 36 44
37 53 1 8 3 29 4 45 2 17 7 92 11 169 l7 138 -41 -4 -42 -4 -37 65 c-51 88
-119 159 -227 241 -106 80 -163 106 -202 93 -21 -7 -39 -3 -86 19 -98 47 -229
70 -320 57z"/>
</g>
</svg>
